HIERARCHY
ROOT Hips
{
	OFFSET -0.001795 -0.223333 0.028219
	CHANNELS 6 Xposition Yposition Zposition Zrotation Yrotation Xrotation 
	JOINT LeftUpLeg
	{
		OFFSET 0.069520 -0.091406 -0.006815
		CHANNELS 3 Zrotation Yrotation Xrotation
		JOINT LeftLeg
		{
			OFFSET 0.034277 -0.375199 -0.004496
			CHANNELS 3 Zrotation Yrotation Xrotation
			JOINT LeftFoot
			{
				OFFSET -0.013596 -0.397961 -0.043693
				CHANNELS 3 Zrotation Yrotation Xrotation
				JOINT LeftToe
				{
					OFFSET 0.026358 -0.055791 0.119288
					CHANNELS 3 Zrotation Yrotation Xrotation
					End Site
					{
						OFFSET 0.000000 0.000000 0.000000
					}
				}
			}
		}
	}
	JOINT RightUpLeg
	{
		OFFSET -0.067670 -0.090522 -0.004320
		CHANNELS 3 Zrotation Yrotation Xrotation
		JOINT RightLeg
		{
			OFFSET -0.038290 -0.382569 -0.008850
			CHANNELS 3 Zrotation Yrotation Xrotation
			JOINT RightFoot
			{
				OFFSET 0.015774 -0.398415 -0.042312
				CHANNELS 3 Zrotation Yrotation Xrotation
				JOINT RightToe
				{
					OFFSET -0.025372 -0.048144 0.123348
					CHANNELS 3 Zrotation Yrotation Xrotation
					End Site
					{
						OFFSET 0.000000 0.000000 0.000000
					}
				}
			}
		}
	}
	JOINT Spine
	{
		OFFSET -0.002533 0.108963 -0.026696
		CHANNELS 3 Zrotation Yrotation Xrotation
		JOINT Spine1
		{
			OFFSET 0.005487 0.135180 0.001092
			CHANNELS 3 Zrotation Yrotation Xrotation
			JOINT Spine2
			{
				OFFSET 0.001457 0.052922 0.025425
				CHANNELS 3 Zrotation Yrotation Xrotation
				JOINT Neck
				{
					OFFSET -0.002778 0.213870 -0.042857
					CHANNELS 3 Zrotation Yrotation Xrotation
					JOINT Head
					{
						OFFSET 0.005152 0.064970 0.051349
						CHANNELS 3 Zrotation Yrotation Xrotation
						End Site
						{
							OFFSET 0.000000 0.000000 0.000000
						}
					}
				}
				JOINT LeftShoulder
				{
					OFFSET 0.078845 0.121749 -0.034090
					CHANNELS 3 Zrotation Yrotation Xrotation
					JOINT LeftArm
					{
						OFFSET 0.090977 0.030469 -0.008868
						CHANNELS 3 Zrotation Yrotation Xrotation
						JOINT LeftForeArm
						{
							OFFSET 0.259612 -0.012772 -0.027456
							CHANNELS 3 Zrotation Yrotation Xrotation
							JOINT LeftHand
							{
								OFFSET 0.249234 0.008986 -0.001171
								CHANNELS 3 Zrotation Yrotation Xrotation
								End Site
								{
									OFFSET 0.000000 0.000000 0.000000
								}
							}
						}
					}
				}
				JOINT RightShoulder
				{
					OFFSET -0.081759 0.118833 -0.038615
					CHANNELS 3 Zrotation Yrotation Xrotation
					JOINT RightArm
					{
						OFFSET -0.096012 0.032551 -0.009143
						CHANNELS 3 Zrotation Yrotation Xrotation
						JOINT RightForeArm
						{
							OFFSET -0.253742 -0.013329 -0.021401
							CHANNELS 3 Zrotation Yrotation Xrotation
							JOINT RightHand
							{
								OFFSET -0.255298 0.007772 -0.005559
								CHANNELS 3 Zrotation Yrotation Xrotation
								End Site
								{
									OFFSET 0.000000 0.000000 0.000000
								}
							}
						}
					}
				}
			}
		}
	}
}
MOTION
Frames: 12
Frame Time: 0.050000
0.024869 0.952390 -0.029253 -5.342903 34.293403 1.110613 10.214888 -1.149876 -0.522965 -1.326501 -0.067695 -8.343312 8.620010 20.703387 21.791454 0.000000 0.000000 0.000000 -2.648150 0.269297 -6.200508 2.768636 -0.534006 -2.062149 2.044038 2.835413 17.321181 0.000000 0.000000 0.000000 -3.376398 -1.618573 20.626206 4.672502 0.080927 -25.557339 -1.043266 -3.735509 27.012992 -8.534054 8.700727 -25.850797 0.000000 0.000000 0.000000 -17.612990 -11.261221 0.452339 -49.109436 -28.475594 4.056318 -3.586279 -41.281279 1.640901 0.000000 0.000000 0.000000 9.672445 14.133999 8.357837 63.010920 29.617576 9.622725 0.854025 44.307480 4.232944 0.000000 0.000000 0.000000 
0.026307 0.952177 -0.031081 -5.447732 34.389553 0.915647 10.425234 -1.184436 -0.431353 -1.786223 -0.091126 -8.380614 8.648243 20.689777 21.586423 0.000000 0.000000 0.000000 -2.626929 0.263609 -6.089057 2.638453 -0.512387 -2.053438 1.996080 2.767649 17.369458 0.000000 0.000000 0.000000 -3.666386 -1.624426 20.957038 5.067163 -0.008642 -25.515393 -1.046637 -3.477861 26.822949 -8.128631 8.530130 -25.269586 0.000000 0.000000 0.000000 -17.394358 -10.893003 0.234095 -48.364484 -28.306333 3.923640 -3.134779 -41.556365 1.410566 0.000000 0.000000 0.000000 9.682395 14.365953 8.503072 63.379488 30.085850 10.076214 0.582400 43.828359 4.040767 0.000000 0.000000 0.000000 
0.027355 0.951929 -0.033206 -5.629773 34.497561 0.784920 10.537257 -1.202580 -0.471083 -1.925022 -0.103223 -8.447320 8.657153 20.669162 21.394066 0.000000 0.000000 0.000000 -2.517449 0.280775 -6.242375 2.486893 -0.486151 -1.837479 1.924762 2.665778 17.400444 0.000000 0.000000 0.000000 -3.837490 -1.627261 21.125412 5.310291 -0.064365 -25.334819 -0.885493 -3.130814 26.637576 -8.063099 8.549706 -24.919590 0.000000 0.000000 0.000000 -17.330481 -10.834091 0.110891 -47.798024 -28.467118 3.955703 -2.144334 -41.313790 0.971845 0.000000 0.000000 0.000000 9.735739 14.598703 8.677438 63.646704 30.428459 10.429779 -0.157353 43.228080 3.653822 0.000000 0.000000 0.000000 
0.028109 0.951746 -0.035505 -5.887772 34.657284 0.546009 10.606817 -1.212634 -0.577258 -1.854499 -0.098526 -8.328553 8.624108 20.605287 21.141550 0.000000 0.000000 0.000000 -2.372086 0.290697 -6.171371 2.408010 -0.474432 -1.917825 1.851714 2.554255 17.553401 0.000000 0.000000 0.000000 -3.987474 -1.663851 21.467178 5.558667 -0.119765 -25.250492 -0.800899 -2.700714 26.503851 -7.949712 8.564269 -23.999728 0.000000 0.000000 0.000000 -17.392463 -11.180933 0.135085 -47.025391 -28.504217 3.944997 -0.417609 -40.829235 0.256201 0.000000 0.000000 0.000000 9.861791 14.934299 8.934683 63.692311 30.548219 10.564272 -0.879222 42.795976 3.303473 0.000000 0.000000 0.000000 
0.028507 0.951741 -0.038039 -5.967066 35.052088 0.454951 10.609570 -1.222565 -0.656102 -1.936573 -0.118956 -8.508923 8.416830 20.389659 20.992429 0.000000 0.000000 0.000000 -2.407334 0.282513 -6.197808 2.361462 -0.468868 -1.914197 1.671205 2.290306 17.703078 0.000000 0.000000 0.000000 -4.165174 -1.729423 21.966957 5.564681 -0.113132 -25.185165 -0.646616 -2.547149 26.537877 -8.269242 8.783112 -23.844726 0.000000 0.000000 0.000000 -17.580054 -11.457908 0.143769 -46.303881 -29.134911 4.146569 1.040657 -39.229721 -0.274027 0.000000 0.000000 0.000000 9.776532 15.192842 9.070728 63.875085 30.714002 10.770841 -1.675122 42.298875 2.933455 0.000000 0.000000 0.000000 
0.028538 0.951859 -0.040799 -6.041654 35.319938 0.387885 10.650900 -1.230033 -0.847423 -2.076452 -0.132584 -8.518672 8.275496 20.248873 20.895513 0.000000 0.000000 0.000000 -2.460284 0.276164 -6.269013 2.364287 -0.471259 -1.944827 1.563536 2.118279 17.920747 0.000000 0.000000 0.000000 -4.176744 -1.834042 22.539762 5.547874 -0.105730 -25.317818 -0.599634 -2.229999 26.544232 -8.476000 8.942723 -23.442955 0.000000 0.000000 0.000000 -17.722032 -11.851154 0.198904 -45.678238 -29.977661 4.427329 2.653072 -37.353325 -0.803336 0.000000 0.000000 0.000000 9.432442 15.372414 9.085449 64.092579 30.733268 10.970376 -2.019137 42.173237 2.782785 0.000000 0.000000 0.000000 
0.028180 0.952327 -0.043733 -6.163691 35.788033 0.385568 10.707313 -1.239866 -1.240986 -2.146025 -0.144483 -8.484145 7.988092 19.992871 20.845214 0.000000 0.000000 0.000000 -2.538525 0.268327 -6.441495 2.490166 -0.496719 -1.977608 1.377365 1.829541 18.279931 0.000000 0.000000 0.000000 -4.159740 -1.960769 23.140934 5.321978 -0.040762 -25.263933 -0.622524 -2.163472 26.309003 -8.706860 9.082258 -23.178830 0.000000 0.000000 0.000000 -17.431804 -12.012693 0.265234 -45.410647 -30.946945 4.740386 3.807442 -35.403468 -1.114417 0.000000 0.000000 0.000000 9.190147 15.321975 9.009934 64.418917 30.637981 11.123503 -2.125186 42.435638 2.780494 0.000000 0.000000 0.000000 
0.027614 0.952659 -0.046401 -6.295995 36.211787 0.422357 10.864786 -1.261943 -1.693346 -2.342162 -0.159652 -8.403378 7.751106 19.784166 20.795208 0.000000 0.000000 0.000000 -2.633039 0.263392 -6.707541 2.834310 -0.560807 -1.884807 1.003963 1.239059 18.447370 0.000000 0.000000 0.000000 -4.060822 -2.096003 23.673974 5.020971 0.034565 -25.815902 -0.647732 -2.260527 26.650214 -8.999350 9.257558 -23.391582 0.000000 0.000000 0.000000 -17.415164 -12.390284 0.439384 -45.268935 -32.508327 5.241560 5.123843 -33.184145 -1.376351 0.000000 0.000000 0.000000 8.839007 15.265381 8.874230 64.611932 30.456465 11.129461 -1.603195 43.020170 3.052143 0.000000 0.000000 0.000000 
0.027163 0.953065 -0.048381 -6.252075 36.619751 0.561103 10.859407 -1.262447 -2.099035 -2.502575 -0.173091 -8.317089 7.490894 19.562970 20.786835 0.000000 0.000000 0.000000 -2.691540 0.253100 -6.792083 2.918140 -0.579129 -2.039404 0.566681 0.566090 18.571646 0.000000 0.000000 0.000000 -4.014106 -2.131725 23.725623 4.855588 0.086186 -25.702437 -0.832904 -2.368300 26.490767 -9.274021 9.403689 -23.205191 0.000000 0.000000 0.000000 -17.190892 -12.526442 0.513295 -45.301733 -33.634096 5.634869 5.609375 -31.715217 -1.426657 0.000000 0.000000 0.000000 8.756456 15.083808 8.781243 64.621722 30.060487 10.925142 -1.024431 43.358104 3.323725 0.000000 0.000000 0.000000 
0.027183 0.953160 -0.049492 -6.280255 37.045856 0.536473 10.842928 -1.265706 -2.321401 -2.527250 -0.177516 -8.212481 7.248421 19.323455 20.644086 0.000000 0.000000 0.000000 -2.927090 0.215358 -6.798167 3.325182 -0.657950 -2.032798 0.305906 0.170713 18.704682 0.000000 0.000000 0.000000 -4.025026 -2.160664 23.764954 4.572830 0.154927 -25.947867 -0.888346 -2.527341 26.611626 -9.420716 9.499181 -23.301474 0.000000 0.000000 0.000000 -16.957891 -12.634357 0.583248 -46.088386 -34.596799 6.066817 6.242731 -30.850419 -1.544182 0.000000 0.000000 0.000000 8.509313 14.957619 8.652931 64.672500 29.923539 10.905591 -0.432016 43.509536 3.571938 0.000000 0.000000 0.000000 
0.027581 0.953124 -0.049922 -6.057345 37.228863 0.437143 10.585145 -1.231880 -2.254001 -2.516535 -0.168084 -7.977106 7.119530 19.167581 20.476154 0.000000 0.000000 0.000000 -3.184599 0.164684 -6.477334 3.443230 -0.682242 -2.033214 0.134440 -0.081154 18.455421 0.000000 0.000000 0.000000 -4.071688 -2.180164 23.877569 4.148560 0.249103 -26.363570 -0.797768 -2.661210 26.881539 -9.467302 9.543982 -23.216042 0.000000 0.000000 0.000000 -17.206358 -12.655846 0.554850 -46.569835 -35.327342 6.419098 5.851436 -30.158718 -1.364222 0.000000 0.000000 0.000000 8.218659 14.781822 8.468016 64.836121 29.904370 10.967275 0.280784 43.116801 3.783147 0.000000 0.000000 0.000000 
0.028193 0.952928 -0.050073 -5.952513 37.443352 0.402211 10.485333 -1.225946 -2.141172 -2.588585 -0.181160 -8.056924 7.009040 19.033598 20.351485 0.000000 0.000000 0.000000 -3.443069 0.117246 -6.258186 3.552502 -0.704992 -2.099825 0.216375 0.092916 18.332159 0.000000 0.000000 0.000000 -4.022436 -2.174486 23.731352 3.929946 0.303154 -26.263712 -0.950705 -2.795400 26.770109 -9.608222 9.615728 -23.156313 0.000000 0.000000 0.000000 -17.062737 -12.606046 0.540794 -47.938127 -36.216313 7.001380 5.511322 -29.340080 -1.209152 0.000000 0.000000 0.000000 7.866967 14.586097 8.267588 65.339899 29.897788 11.218783 0.927936 42.900537 4.005204 0.000000 0.000000 0.000000 
